<svg xmlns="http://www.w3.org/2000/svg" viewBox="0 0 512 512" fill="none">
  <defs>
    <linearGradient id="shieldGrad" x1="0%" y1="0%" x2="100%" y2="100%">
      <stop offset="0%" stop-color="#0EA5E9"/>
      <stop offset="100%" stop-color="#0A2463"/>
    </linearGradient>
    <linearGradient id="dropGrad" x1="0%" y1="0%" x2="0%" y2="100%">
      <stop offset="0%" stop-color="#7DD3FC"/>
      <stop offset="100%" stop-color="#0284C7"/>
    </linearGradient>
  </defs>
  <!-- Shield -->
  <path d="M256 42L72 130v128c0 110 78 213 184 240 106-27 184-130 184-240V130L256 42z" fill="url(#shieldGrad)" opacity="0.15" stroke="url(#shieldGrad)" stroke-width="12" stroke-linejoin="round"/>
  <!-- Inner shield highlight -->
  <path d="M256 78L104 152v106c0 94 66 182 152 206 86-24 152-112 152-206V152L256 78z" fill="url(#shieldGrad)" opacity="0.08"/>
  <!-- Water droplet -->
  <path d="M256 170c0 0-72 88-72 144a72 72 0 1 0 144 0c0-56-72-144-72-144z" fill="url(#dropGrad)"/>
  <!-- Droplet shine -->
  <ellipse cx="234" cy="296" rx="16" ry="24" fill="white" opacity="0.35" transform="rotate(-15 234 296)"/>
  <!-- Admin gear teeth (subtle, around the shield) -->
  <g opacity="0.5" stroke="url(#shieldGrad)" stroke-width="8" stroke-linecap="round">
    <line x1="256" y1="16" x2="256" y2="36"/>
    <line x1="256" y1="416" x2="256" y2="436"/>
    <line x1="108" y1="72" x2="120" y2="88"/>
    <line x1="404" y1="72" x2="392" y2="88"/>
    <line x1="46" y1="220" x2="66" y2="220"/>
    <line x1="446" y1="220" x2="466" y2="220"/>
  </g>
</svg>