<?xml version="1.0" encoding="UTF-8"?>
<svg version="1.1" xmlns="http://www.w3.org/2000/svg" width="512" height="512" viewBox="485 155 450 450">
  <!-- Restoration of your original high-detail logo design with a focused viewbox -->
  <path d="M0 0 C12.8 9.5 21.0 22.1 28.0 36.2 C28.7 37.7 29.5 39.1 30.2 40.6 C32.5 45.0 34.7 49.5 37 54 C37.6 55.3 38.3 56.7 39.0 58.1 C41.6 63.3 44.2 68.4 46.8 73.6 C50.6 81.2 54.4 88.8 58.5 96.3 C62.4 103.8 66.2 111.4 70 119 C70.6 120.3 71.3 121.6 71.9 122.9 C72.3 123.6 72.6 124.2 72.9 124.9 C82.5 144.2 82.5 144.2 92.5 163.4 C95.4 168.9 98.2 174.4 101 180 C104.0 186.2 107.2 192.3 110.5 198.5 C115.5 207.9 120.2 217.4 125 227 C130.0 237.0 135.0 247.1 140.3 257.1 C144.3 264.6 148.1 272.2 151.9 279.8 C155.6 287.4 159.5 294.9 163.5 302.3 C173.3 320.5 178.3 341.7 172.5 362.1 C171.7 364.1 170.8 366.0 170 368 C169.6 368.9 169.6 368.9 169.2 369.8 C161.7 387.2 149.5 400.6 131.7 407.9 C130.8 408.3 129.9 408.6 129 409 C128.1 409.3 127.3 409.6 126.4 409.9 C109.4 415.2 90.1 413.2 74.4 405.2 C62.0 397.9 52.2 387.9 43.6 376.6 C27.5 355.8 5.6 340.7 -20.6 336.3 C-36.7 334.6 -53.6 334.6 -69 340 C-70.0 340.3 -70.0 340.3 -71.1 340.7 C-85.0 345.7 -96.2 352.9 -106.8 363.0 C-109 365 -109 365 -111 365 C-111.3 365.8 -111.3 365.8 -111.7 366.7 C-113.2 369.4 -115.0 371.4 -117.1 373.6 C-120.1 376.9 -123.0 380.2 -125.7 383.8 C-128.3 387.1 -130.9 390.1 -134 393 C-134.5 393.5 -135.0 394.0 -135.6 394.6 C-149.9 407.8 -166.5 412.7 -185.6 412.5 C-204.9 411.8 -220.2 403.1 -233.6 389.5 C-247.0 374.0 -251.3 354.5 -250.2 334.6 C-249.2 322.6 -244.8 312.5 -239.1 302.1 C-237.9 299.8 -236.7 297.5 -235.5 295.1 C-220.0 264.9 -200.5 244.4 -168.3 232.6 C-131.0 221.3 -95.7 238.7 -63.2 255.3 C-51.4 261.3 -39.9 266.2 -27.1 269.7 C-25.5 270.2 -25.5 270.2 -23.9 270.6 C1.2 277.6 27.3 275.9 50.2 263.0 C57.3 258.8 62.8 253.4 68 247 C67.2 247.5 66.5 248.1 65.7 248.7 C49.5 261.5 30.5 266.6 10 265 C-19.4 261.3 -44.0 246.2 -68.8 230.8 C-81.4 222.9 -93.9 215.2 -108 210 C-109.5 209.4 -109.5 209.4 -111.1 208.8 C-132.9 201.0 -154.9 202.4 -176.3 210.6 C-179.6 211.8 -181.5 212.5 -185 212 C-186.8 211 -186.8 211 -188 209 C-188.4 202.8 -187.4 198.8 -184.5 193.5 C-183.7 192.0 -183.0 190.6 -182.2 189.2 C-181.7 188.2 -181.7 188.2 -181.1 187.1 C-179.6 184.4 -178.3 181.6 -176.9 178.8 C-174.2 173.2 -171.3 167.8 -168.1 162.4 C-164.2 155.6 -160.9 148.6 -157.5 141.5 C-148.5 122.5 -139.0 103.7 -129.1 85.2 C-124.0 75.6 -118.9 66.0 -114.1 56.3 C-113.8 55.6 -113.5 55.0 -113.1 54.4 C-111.1 50.2 -109.1 46.1 -107.0 42.0 C-106.0 39.8 -104.9 37.7 -103.9 35.6 C-103.4 34.6 -102.9 33.6 -102.4 32.5 C-92.9 13.3 -79.5 -0.3 -59.3 -7.9 C-38.7 -14.3 -18.3 -11.4 0 0 Z" fill="#0A60B3" transform="translate(742,177)"/>
  <path d="M0 0 C12.8 9.5 21.0 22.1 28.0 36.2 C28.7 37.7 29.5 39.1 30.2 40.6 C32.5 45.0 34.7 49.5 37 54 C37.6 55.3 38.3 56.7 39.0 58.1 C41.6 63.3 44.2 68.4 46.8 73.6 C50.3 80.6 53.8 87.6 57.5 94.5 C66.5 111.3 66.5 111.3 68.8 118.7 C70.0 122.2 71.5 125.5 73.0 128.9 C84.3 154.0 88.3 178.6 89 206 C88.3 206 87.6 206 87 206 C87.0 207.2 87.1 208.5 87.2 209.8 C87.2 215.6 85.2 220.6 83 226 C83.6 226.6 84.3 227.3 85 228 C84.0 228.3 83.0 228.6 82 229 C81.8 229.6 81.7 230.3 81.6 231.0 C80.7 235.9 79.9 239.8 77 244 C76.3 245.1 75.6 246.3 75 247.5 C70.3 255.6 70.3 255.6 68 258 C67.2 257.9 66.5 257.8 65.7 257.8 C61.8 258.0 59.7 260.3 57 262.8 C53.5 266.0 50.4 268.4 46 270 C44.2 271.2 42.6 272.6 41 274 C41.9 274.6 42.9 275.3 44 276 C42.3 276.9 40.7 277.9 39 279 C38.0 278.0 37.0 277.0 36 276 C35.3 276.3 34.6 276.6 34 277 C33.0 276.6 32.0 276.3 31 276 C29.6 276.9 28.3 277.9 27 279 C25.3 279.3 23.6 279.6 22 280 C19.7 281.4 19.7 281.4 18 283 C18.6 283.3 19.3 283.6 20 284 C20.9 283.6 21.9 283.3 23 283 C23.3 283.6 23.6 284.3 24 285 C24.6 285.3 25.3 285.6 26 286 C25.3 286.9 24.6 287.9 24 289 C21.4 289.2 21.4 289.2 18.3 289.1 C13.7 289.0 9.5 289.3 5 290 C0.0 290.2 -3.6 290.4 -8 288 C-7.3 287.3 -6.6 286.6 -6 286 C-7.0 286.0 -8.0 286.0 -9.0 286.0 C-10.4 286.0 -11.7 286.1 -13.1 286.1 C-13.7 286.1 -14.4 286.1 -15.1 286.1 C-19.5 286.2 -22.8 285.4 -27 284 C-29.7 283.7 -32.2 283.9 -35 284 C-35.3 282.6 -35.6 281.3 -36 280 C-38.6 279.6 -41.2 279.3 -44 279 C-44 278.3 -44 277.6 -44 277 C-44.6 277 -45.3 277 -46 277 C-46 276.3 -46 275.6 -46 275 C-46.6 274.9 -47.2 274.8 -47.8 274.7 C-50.3 274.3 -52.6 273.8 -55 273 C-56.5 270.3 -56.5 270.3 -57 268 C-58.6 268 -60.3 268 -62 268 C-61.3 267.6 -60.6 267.3 -60 267 C-60 266.3 -60 265.6 -60 265 C-61.9 265 -63.9 265 -66 265 C-66.4 263.5 -66.4 263.5 -67 262 C-67.6 262 -68.3 262 -69 262 C-69.3 262.6 -69.6 263.3 -70 264 C-70.9 263.6 -71.9 263.3 -73 263 C-73.3 262.3 -73.6 261.6 -74 261 C-75.6 259.9 -77.3 258.9 -79 258 C-80.6 257 -82.3 256 -84 255 C-84 255.6 -84 256.3 -84 257 C-84.6 257 -85.3 257 -86 257 C-86.0 256.4 -86.1 255.8 -86.2 255.3 C-87.2 252.2 -88.7 250.3 -91 248 C-93.6 246.6 -93.6 246.6 -96 246 C-96 245.3 -96 244.6 -96 244 C-102.7 239.4 -111.8 238.1 -119.8 236.5 C-123.9 235.5 -127.9 234.2 -132 233 C-132 232.6 -132 232.3 -132 232 C-108.8 228.2 -83.1 245.1 -63.2 255.3 C-51.4 261.3 -39.9 266.2 -27.1 269.7 C-25.5 270.2 -25.5 270.2 -23.9 270.6 C1.2 277.6 27.3 275.9 50.2 263.0 C57.3 258.8 62.8 253.4 68 247 C67.2 247.5 66.5 248.1 65.7 248.7 C49.5 261.5 30.5 266.6 10 265 C-19.4 261.3 -44.0 246.2 -68.8 230.8 C-81.4 222.9 -93.9 215.2 -108 210 C-109.0 209.6 -110.0 209.2 -111.1 208.8 C-132.9 201.0 -154.9 202.4 -176.3 210.6 C-179.6 211.8 -181.5 212.5 -185 212 C-186.8 211 -186.8 211 -188 209 C-188.4 202.8 -187.4 198.8 -184.5 193.5 C-183.7 192.0 -183.0 190.6 -182.2 189.2 C-181.9 188.5 -181.5 187.8 -181.1 187.1 C-179.6 184.4 -178.3 181.6 -176.9 178.8 C-174.2 173.2 -171.3 167.8 -168.1 162.4 C-164.2 155.6 -160.9 148.6 -157.5 141.5 C-148.5 122.5 -139.0 103.7 -129.1 85.2 C-124.0 75.6 -118.9 66.0 -114.1 56.3 C-113.8 55.6 -113.5 55.0 -113.1 54.4 C-111.1 50.2 -109.1 46.1 -107.0 42.0 C-106.0 39.8 -104.9 37.7 -103.9 35.6 C-103.2 34.1 -103.2 34.1 -102.4 32.5 C-92.9 13.3 -79.5 -0.3 -59.3 -7.9 C-38.7 -14.3 -18.3 -11.4 0 0 Z" fill="#308BCF" transform="translate(742,177)"/>
  <path d="M0 0 C0.5 0.6 1.1 1.2 1.8 1.9 C3.9 4.2 3.9 4.2 7 5 C8.1 7.3 9.1 9.6 10.1 12.1 C10.3 12.8 10.6 13.5 10.9 14.1 C12.4 18.1 13.4 21.8 14 26 C14.6 26 15.3 26 16 26 C16.1 26.9 16.3 27.8 16.5 28.7 C16.9 30.5 16.9 30.5 17.3 32.3 C17.7 34.1 17.7 34.1 18.1 35.9 C18.7 39.0 18.7 39.0 21 41 C21.3 44.5 21.3 44.5 21 48 C20.0 48.6 19.0 49.3 18 50 C17.0 49.3 16.0 48.6 15 48 C14.8 45.4 14.7 43.1 14.8 40.6 C15.0 36.2 15.0 32.3 14 28 C12.6 28.3 11.3 28.6 10 29 C9.6 25.7 9.3 22.4 9 19 C8.3 19 7.6 19 7 19 C7.3 17.0 7.6 15.0 8 13 C7.3 13 6.6 13 6 13 C5.8 12.0 5.8 12.0 5.7 11.1 C5.3 10.0 5.3 10.0 5 9 C4.3 8.7 3.6 8.4 3 8.1 C2.3 7.7 1.6 7.4 1 7 C0.2 3.3 0.2 3.3 0 0 Z" fill="#68AFDC" transform="translate(797,293)"/>
  <path d="M0 0 C2.8 0.0 5.7 -0.0 8.6 -0.0 C19.2 -0.1 28.1 0.6 37.6 5.7 C40.6 7.3 43.6 8.3 46.9 9.3 C48.9 9.9 50.8 10.7 52.7 11.6 C55.8 12.9 57.7 13.2 61 13 C61 14.3 61 15.6 61 17 C61.9 17 62.9 17 64 17 C64.9 18.4 64.9 18.4 66 20 C67.9 20.6 69.9 21.3 72 22 C72.4 22.9 72.4 22.9 73 24 C74.6 24.7 76.3 25.3 78 26 C79.2 26.5 80.4 27.0 81.6 27.6 C84.7 29.1 84.7 29.1 87 29 C87.2 29.6 87.5 30.2 87.8 30.9 C88.8 33.3 88.8 33.3 92 34 C93 35 94 36 95 37 C95.9 37.3 96.9 37.6 98 38 C98.3 38.6 98.6 39.3 99 40 C100.7 40.9 102.5 41.8 104.3 42.6 C105.8 43.2 105.8 43.2 107.3 43.9 C109.9 45.1 109.9 45.1 113 45 C114.0 45.9 115.0 46.9 116 48 C117.6 49.0 119.3 50.0 121 51 C121.3 50.3 121.6 49.6 122 49 C122.8 49.9 122.8 49.9 123.6 50.8 C126.3 53.3 128.4 54.0 132 55 C132.9 55.3 133.8 55.6 134.7 55.9 C138.2 57.0 141.6 57.6 145.2 58.1 C146.4 58.2 147.6 58.4 148.9 58.6 C151.8 59.0 151.8 59.0 154 59 C154.3 59.6 154.6 60.3 155 61 C159.5 62.3 162.8 61.6 167.3 60.5 C171.5 59.6 175.8 59.4 180.1 59.2 C183.0 59.1 183.0 59.1 186 58 C188.3 57.9 190.6 57.9 193 58 C193.3 57.0 193.6 56.0 194 55 C195.1 54.8 195.1 54.8 196.3 54.6 C199.2 53.9 199.9 53.1 202 51 C204.1 50.3 204.1 50.3 206 50 C206 49.3 206 48.6 206 48 C206.6 48 207.3 48 208 48 C208 47.3 208 46.6 208 46 C209.0 45.6 209.0 45.6 210.1 45.2 C211.0 44.8 211.9 44.5 212.9 44.1 C213.8 43.8 214.7 43.5 215.7 43.1 C218.3 42.1 218.3 42.1 219 39 C219.9 38.6 220.9 38.3 222 38 C219.0 47.3 208.1 52.9 200.0 57.5 C178.1 68.3 153.7 66.7 131.0 59.1 C112.2 52.3 95.0 41.3 78.1 30.8 C65.5 22.9 53.0 15.2 39 10 C37.9 9.6 36.9 9.2 35.8 8.8 C17.1 2.1 -1.9 2.0 -20.8 7.9 C-24.7 9.0 -28.0 9.2 -32 9 C-29.4 6.4 -27.4 6.1 -24 5.1 C-18.9 3.6 -14.1 1.9 -9.4 -0.3 C-6.0 -1.2 -3.4 -0.5 0 0 Z" fill="#65ADD1" transform="translate(595,377)"/>
</svg>
